<svg xmlns="http://www.w3.org/2000/svg" width="1200" height="40" viewBox="0 0 1200 40">
  <!-- Ink wash wave border — section divider -->
  <defs>
    <linearGradient id="wave-fade" x1="0" y1="0" x2="1" y2="0">
      <stop offset="0%" stop-color="#C4B99A" stop-opacity="0"/>
      <stop offset="15%" stop-color="#C4B99A" stop-opacity="0.3"/>
      <stop offset="85%" stop-color="#C4B99A" stop-opacity="0.3"/>
      <stop offset="100%" stop-color="#C4B99A" stop-opacity="0"/>
    </linearGradient>
  </defs>
  <g fill="none" stroke-linecap="round">
    <!-- Main wave line -->
    <path d="M0,20 C25,16 50,24 75,20 C100,16 125,24 150,20 C175,16 200,24 225,20 C250,16 275,24 300,20 C325,16 350,24 375,20 C400,16 425,24 450,20 C475,16 500,24 525,20 C550,16 575,24 600,20 C625,16 650,24 675,20 C700,16 725,24 750,20 C775,16 800,24 825,20 C850,16 875,24 900,20 C925,16 950,24 975,20 C1000,16 1025,24 1050,20 C1075,16 1100,24 1125,20 C1150,16 1175,24 1200,20"
          stroke="url(#wave-fade)" stroke-width="1"/>
    <!-- Upper parallel wave (fainter) -->
    <path d="M30,14 C55,10 80,18 105,14 C130,10 155,18 180,14 C205,10 230,18 255,14 C280,10 305,18 330,14 C355,10 380,18 405,14 C430,10 455,18 480,14 C505,10 530,18 555,14 C580,10 605,18 630,14 C655,10 680,18 705,14 C730,10 755,18 780,14 C805,10 830,18 855,14 C880,10 905,18 930,14 C955,10 980,18 1005,14 C1030,10 1055,18 1080,14 C1105,10 1130,18 1155,14 C1180,10 1200,16 1200,14"
          stroke="#C4B99A" stroke-width="0.5" opacity="0.15"/>
    <!-- Lower parallel wave (fainter) -->
    <path d="M15,26 C40,22 65,30 90,26 C115,22 140,30 165,26 C190,22 215,30 240,26 C265,22 290,30 315,26 C340,22 365,30 390,26 C415,22 440,30 465,26 C490,22 515,30 540,26 C565,22 590,30 615,26 C640,22 665,30 690,26 C715,22 740,30 765,26 C790,22 815,30 840,26 C865,22 890,30 915,26 C940,22 965,30 990,26 C1015,22 1040,30 1065,26 C1090,22 1115,30 1140,26 C1165,22 1190,30 1200,26"
          stroke="#C4B99A" stroke-width="0.5" opacity="0.15"/>
    <!-- Tiny cloud curl accents -->
    <g stroke="#C4B99A" stroke-width="0.6" fill="none" opacity="0.2">
      <path d="M300,18 C305,15 310,15 312,18 C314,21 310,22 307,20"/>
      <path d="M600,22 C605,19 610,19 612,22 C614,25 610,26 607,24"/>
      <path d="M900,18 C905,15 910,15 912,18 C914,21 910,22 907,20"/>
    </g>
  </g>
</svg>
